<?xml version="1.0" encoding="UTF-8" standalone="no"?><!DOCTYPE svg PUBLIC "-//W3C//DTD SVG 1.1//EN" "http://www.w3.org/Graphics/SVG/1.1/DTD/svg11.dtd"><svg width="100%" height="100%" viewBox="0 0 7209 9950" version="1.1" xmlns="http://www.w3.org/2000/svg" xmlns:xlink="http://www.w3.org/1999/xlink" xml:space="preserve" xmlns:serif="http://www.serif.com/" style="fill-rule:evenodd;clip-rule:evenodd;stroke-linecap:round;stroke-linejoin:round;stroke-miterlimit:1.5;"><g id="logo"><g><path id="tree" d="M2493.38,8523.83c43.763,-120.908 70.958,-214.296 160.292,-371.004c71.367,-125.183 282.817,-446.371 381.108,-753.566c185.159,-578.671 166.929,-655.376 170.454,-866.521c1.063,-63.596 -0.637,-128.704 0,-261.059c0.288,-59.366 -2.641,-167.404 -18.508,-226.687c-40.25,-150.425 -201.854,-231.863 -201.854,-231.863l3.425,0c-0,0 -259.484,-153.854 -414.088,-288.246c-92.112,-80.066 -142.35,-136.408 -226.216,-231.787c-323.163,-367.521 -405.909,-839.829 -417.35,-1014.8c-19.063,-291.5 29.675,-622.092 113.816,-857.746c82.996,-232.458 246.979,-439.362 317.046,-519.675c214.863,-246.279 578.683,-445.887 931.867,-499.425c353.187,-53.533 969.458,-20.721 1386.12,400.142c230.788,233.116 380.692,520.041 395.705,1082.82c10.92,409.413 -242.25,992.396 -879.734,1222.42c-182.466,65.842 -404.529,94.838 -592.104,85.475c-222.458,-11.1 -414.725,-80.825 -518.371,-140.075c-294.696,-168.462 -505.666,-418.292 -519.012,-859.462c-4.05,-133.879 7.875,-246.634 51.633,-400.604c16.138,-56.767 105.788,-280.105 230.546,-401.821c211.488,-206.325 374.588,-264.096 456.183,-282.096c26.913,-5.933 36.838,37.817 22.275,45.896c-84.762,47.021 -208.37,125.196 -290.512,212.587c-81.079,86.263 -143.383,193.6 -185.258,296.663c-40.175,98.875 -74.9,234.587 -72.196,339.275c3.629,140.416 35.946,332.862 122.046,466.891c114.5,178.225 309.283,323.73 446.066,368.659c411.692,135.221 710.321,33.666 925.696,-107.95c358.683,-235.85 487.413,-695.379 397.567,-1180.91c-112.059,-605.554 -749.863,-822.658 -1160.38,-812.833c-523.975,12.546 -908.963,294.562 -1102.52,692.871c-144.388,297.121 -182.254,658.946 -91.834,1021.89c83.809,336.409 347.917,617.896 607.425,767.225c256.263,147.467 558.23,179.305 680.646,184.305c454.867,18.583 741.725,-80.038 1058.16,-280.767c292.808,-185.746 741.458,-718.175 677.837,-1410.02c-70.633,-768.141 -431.104,-1117.59 -670.254,-1289.82c-397.558,-286.316 -953.929,-372.02 -1463.87,-294.925c-426.483,64.48 -746.629,300.442 -855.587,390.984c-263.95,219.341 -425.929,454.125 -516.633,700.612c-60.788,165.196 -145.171,417.317 -115.159,852.925c7.525,109.217 35.379,306.238 105.859,542.542c32.475,108.887 152.516,333.754 178.887,400.3c2.375,5.987 -12.587,9.821 -25.037,-2.121c-68.775,-65.975 -299.425,-333.042 -410,-857.871c-15.909,-75.521 -34.775,-178.283 -41.855,-251.358c-49.037,-506.208 132.971,-982.013 378.142,-1311.14c6.004,-8.062 230.058,-318.616 638.108,-548.675c332.138,-187.262 773.163,-280.354 1121.47,-272.679c702.246,15.471 1306.47,377.817 1569.91,693.279c226.679,271.442 459.204,718.629 478.237,1216.43c8.584,224.408 19.746,607.412 -146.25,1024.5c-99.504,250.017 -439.046,634.696 -739.058,828.68c-60.988,39.429 -283.533,156.754 -339.921,184.429c-159.783,78.429 -187.833,94.191 -187.833,94.191c-0,0 -161.604,81.438 -201.854,231.863c-15.863,59.283 -18.796,167.321 -18.509,226.687c0.638,132.355 -0.021,261.059 -0.021,261.059c0,-0 85.825,555.121 186.513,867.571c107.712,334.262 279.787,609.608 363.071,753.341c73.529,126.9 138.604,265.475 195.441,403.363c672.421,272.662 1231.91,766.216 1588.25,1390.37c-399.779,-377.966 -876.029,-675.841 -1403.03,-867.858c41.729,135.079 72.375,246.071 92.329,312.525c93.9,312.667 102.046,503.483 102.046,503.483c0,0 -304.729,-482.133 -677.404,-778.537c-284.225,-226.054 -671.267,-272.159 -835.292,-281.384c-24.291,-0.433 -48.795,-0.65 -73.35,-0.65c-29.208,0 -58.341,0.309 -87.379,0.921c-164.329,9.838 -542.016,57.175 -823.579,281.113c-372.675,296.404 -691.479,778.537 -691.479,778.537c-0,0 8.862,-190.816 102.762,-503.483c21.717,-72.317 73.03,-180 140.621,-324.254c-539.95,191.5 -1027.62,493.829 -1435.65,879.587c370.955,-649.758 962.084,-1157.99 1671.37,-1422.73Z" style="fill:#8f7158;"/><clipPath id="_clip1"><path id="tree1" serif:id="tree" d="M2493.38,8523.83c43.763,-120.908 70.958,-214.296 160.292,-371.004c71.367,-125.183 282.817,-446.371 381.108,-753.566c185.159,-578.671 166.929,-655.376 170.454,-866.521c1.063,-63.596 -0.637,-128.704 0,-261.059c0.288,-59.366 -2.641,-167.404 -18.508,-226.687c-40.25,-150.425 -201.854,-231.863 -201.854,-231.863l3.425,0c-0,0 -259.484,-153.854 -414.088,-288.246c-92.112,-80.066 -142.35,-136.408 -226.216,-231.787c-323.163,-367.521 -405.909,-839.829 -417.35,-1014.8c-19.063,-291.5 29.675,-622.092 113.816,-857.746c82.996,-232.458 246.979,-439.362 317.046,-519.675c214.863,-246.279 578.683,-445.887 931.867,-499.425c353.187,-53.533 969.458,-20.721 1386.12,400.142c230.788,233.116 380.692,520.041 395.705,1082.82c10.92,409.413 -242.25,992.396 -879.734,1222.42c-182.466,65.842 -404.529,94.838 -592.104,85.475c-222.458,-11.1 -414.725,-80.825 -518.371,-140.075c-294.696,-168.462 -505.666,-418.292 -519.012,-859.462c-4.05,-133.879 7.875,-246.634 51.633,-400.604c16.138,-56.767 105.788,-280.105 230.546,-401.821c211.488,-206.325 374.588,-264.096 456.183,-282.096c26.913,-5.933 36.838,37.817 22.275,45.896c-84.762,47.021 -208.37,125.196 -290.512,212.587c-81.079,86.263 -143.383,193.6 -185.258,296.663c-40.175,98.875 -74.9,234.587 -72.196,339.275c3.629,140.416 35.946,332.862 122.046,466.891c114.5,178.225 309.283,323.73 446.066,368.659c411.692,135.221 710.321,33.666 925.696,-107.95c358.683,-235.85 487.413,-695.379 397.567,-1180.91c-112.059,-605.554 -749.863,-822.658 -1160.38,-812.833c-523.975,12.546 -908.963,294.562 -1102.52,692.871c-144.388,297.121 -182.254,658.946 -91.834,1021.89c83.809,336.409 347.917,617.896 607.425,767.225c256.263,147.467 558.23,179.305 680.646,184.305c454.867,18.583 741.725,-80.038 1058.16,-280.767c292.808,-185.746 741.458,-718.175 677.837,-1410.02c-70.633,-768.141 -431.104,-1117.59 -670.254,-1289.82c-397.558,-286.316 -953.929,-372.02 -1463.87,-294.925c-426.483,64.48 -746.629,300.442 -855.587,390.984c-263.95,219.341 -425.929,454.125 -516.633,700.612c-60.788,165.196 -145.171,417.317 -115.159,852.925c7.525,109.217 35.379,306.238 105.859,542.542c32.475,108.887 152.516,333.754 178.887,400.3c2.375,5.987 -12.587,9.821 -25.037,-2.121c-68.775,-65.975 -299.425,-333.042 -410,-857.871c-15.909,-75.521 -34.775,-178.283 -41.855,-251.358c-49.037,-506.208 132.971,-982.013 378.142,-1311.14c6.004,-8.062 230.058,-318.616 638.108,-548.675c332.138,-187.262 773.163,-280.354 1121.47,-272.679c702.246,15.471 1306.47,377.817 1569.91,693.279c226.679,271.442 459.204,718.629 478.237,1216.43c8.584,224.408 19.746,607.412 -146.25,1024.5c-99.504,250.017 -439.046,634.696 -739.058,828.68c-60.988,39.429 -283.533,156.754 -339.921,184.429c-159.783,78.429 -187.833,94.191 -187.833,94.191c-0,0 -161.604,81.438 -201.854,231.863c-15.863,59.283 -18.796,167.321 -18.509,226.687c0.638,132.355 -0.021,261.059 -0.021,261.059c0,-0 85.825,555.121 186.513,867.571c107.712,334.262 279.787,609.608 363.071,753.341c73.529,126.9 138.604,265.475 195.441,403.363c672.421,272.662 1231.91,766.216 1588.25,1390.37c-399.779,-377.966 -876.029,-675.841 -1403.03,-867.858c41.729,135.079 72.375,246.071 92.329,312.525c93.9,312.667 102.046,503.483 102.046,503.483c0,0 -304.729,-482.133 -677.404,-778.537c-284.225,-226.054 -671.267,-272.159 -835.292,-281.384c-24.291,-0.433 -48.795,-0.65 -73.35,-0.65c-29.208,0 -58.341,0.309 -87.379,0.921c-164.329,9.838 -542.016,57.175 -823.579,281.113c-372.675,296.404 -691.479,778.537 -691.479,778.537c-0,0 8.862,-190.816 102.762,-503.483c21.717,-72.317 73.03,-180 140.621,-324.254c-539.95,191.5 -1027.62,493.829 -1435.65,879.587c370.955,-649.758 962.084,-1157.99 1671.37,-1422.73Z"/></clipPath><g clip-path="url(#_clip1)"><path id="shadow" d="M3094.35,1830.34c196.667,-59.805 492.975,-61.1 563.125,-59.555c702.246,15.471 1314.02,370.267 1577.46,685.734c226.679,271.437 474.646,777.891 480.783,1276.02c4.554,369.425 -24.688,662.945 -170.833,1009.13c-130.988,310.283 -379.059,582.154 -715.434,791.842c-100.071,62.383 -271.329,152.329 -377.887,204.745c-164.979,81.155 -232.054,133.613 -232.054,133.613c-0,-0 -61.017,46.846 -79.663,79.362c-24.171,42.159 -54.617,125.284 -54.329,184.65c0.637,132.355 -4.738,231.2 -4.738,231.2l2.438,145.4c-0,0 44,443.93 220.958,978.855c105.45,318.77 241.73,473.837 320.113,619.87c102.196,190.396 145.358,277.871 192.471,436.896c720.983,261.967 1219.14,740.725 1594.64,1398.44c-421.583,-398.584 -832.346,-632.721 -1382.16,-864.159c65.679,187.492 133.512,460.746 156.679,537.884c93.896,312.666 88.817,332.408 88.817,332.408c-0,0 -394.863,-302.692 -767.538,-599.092c-223.821,-178.016 -518.958,-238.425 -711.971,-264.229c-68.971,-3.496 -132.783,-6.916 -202.771,-6.916c-70.312,-0.001 -136.125,-2.017 -207.875,7.787c-97.354,13.304 -384.095,-117.413 -510.429,-72.55c438.2,-175.867 772.096,-191.142 885.684,-623.571c38.941,-148.25 67.379,-399.254 39.004,-629.754c-30.379,-246.813 -195.404,-1170.48 -182.138,-1378.88c40.571,-637.4 208.779,-658.234 173.217,-982.084c341.646,-14.137 579.571,-96.979 842.775,-269.141c426.512,-278.984 739.529,-794.867 700.708,-1422.23c-47.646,-769.912 -431.108,-1117.59 -670.258,-1289.82c-219.771,-158.275 -488.071,-255.246 -770.283,-297.3c-128.73,-139.413 -553.65,-293.563 -798.513,-294.555Zm1019.35,626.296c172.392,65.78 393.646,171.738 539.017,318.575c230.787,233.121 442.791,595.913 427.537,1166.65c-10.658,398.596 -319.396,967.996 -890.75,1164.95c-118.962,41.012 -253.816,73.262 -385.112,85.1c-0.775,-3.542 -28.234,1.683 -29.129,-1.842c-44.809,-176.029 -125.43,-100.284 -274.571,-149.034c-116.104,-37.954 -213.984,-54.795 -328.25,-128.741c-29.075,-18.817 -226.579,-140.359 -324.838,-293.484c-123.483,-192.441 -155.991,-463.37 -149.046,-586.895c15.721,-279.538 142.75,-535.25 323.121,-706.659c85.046,-80.825 184.142,-138.533 284.992,-179.208c21.667,-5.208 38.029,-7.183 38.029,-7.183c0,-0 -221.362,122.8 -303.504,210.191c-81.079,86.267 -135.65,186.205 -177.525,289.267c-40.175,98.875 -80.513,224.333 -78.3,329.029c3.629,171.729 24.242,364.133 138.525,529.467c120.45,174.262 307.675,300.833 444.462,345.762c411.688,135.221 682.763,29.284 898.138,-112.333c358.683,-235.85 487.417,-695.379 397.567,-1180.91c-42.896,-231.808 -136.592,-383.762 -291.313,-510.77c-6.892,-79.046 -1.55,-104.829 -89.379,-324.904c-52.721,-132.1 -135.296,-193.246 -169.671,-257.03Zm-1618.14,6065.62c0,0 -27.341,70.405 -45.983,130.784c-18.242,59.1 -41.429,141.354 -96.987,242.637c-75.046,136.817 -102.9,201.692 -102.9,201.692c-0,-0 -899.63,323.125 -1470.23,908.271l171.963,-355.834c-0,0 676.342,-924.5 1544.14,-1127.55Z" style="fill:#2f2f2f;fill-opacity:0.25;"/><path d="M2493.38,8523.83c43.763,-120.908 70.958,-214.296 160.292,-371.004c71.367,-125.183 282.817,-446.371 381.108,-753.566c185.159,-578.671 166.929,-655.376 170.454,-866.521c1.063,-63.596 -0.637,-128.704 0,-261.059c0.288,-59.366 -2.641,-167.404 -18.508,-226.687c-40.25,-150.425 -201.854,-231.863 -201.854,-231.863l3.425,0c-0,0 -259.484,-153.854 -414.088,-288.246c-92.112,-80.066 -142.35,-136.408 -226.216,-231.787c-323.163,-367.521 -405.909,-839.829 -417.35,-1014.8c-19.063,-291.5 29.675,-622.092 113.816,-857.746c82.996,-232.458 246.979,-439.362 317.046,-519.675c214.863,-246.279 578.683,-445.887 931.867,-499.425c353.187,-53.533 969.458,-20.721 1386.12,400.142c230.788,233.116 380.692,520.041 395.705,1082.82c10.92,409.413 -242.25,992.396 -879.734,1222.42c-182.466,65.842 -404.529,94.838 -592.104,85.475c-222.458,-11.1 -414.725,-80.825 -518.371,-140.075c-294.696,-168.462 -505.666,-418.292 -519.012,-859.462c-4.05,-133.879 7.875,-246.634 51.633,-400.604c16.138,-56.767 105.788,-280.105 230.546,-401.821c211.488,-206.325 374.588,-264.096 456.183,-282.096c26.913,-5.933 36.838,37.817 22.275,45.896c-84.762,47.021 -208.37,125.196 -290.512,212.587c-81.079,86.263 -143.383,193.6 -185.258,296.663c-40.175,98.875 -74.9,234.587 -72.196,339.275c3.629,140.416 35.946,332.862 122.046,466.891c114.5,178.225 309.283,323.73 446.066,368.659c411.692,135.221 710.321,33.666 925.696,-107.95c358.683,-235.85 487.413,-695.379 397.567,-1180.91c-112.059,-605.554 -749.863,-822.658 -1160.38,-812.833c-523.975,12.546 -908.963,294.562 -1102.52,692.871c-144.388,297.121 -182.254,658.946 -91.834,1021.89c83.809,336.409 347.917,617.896 607.425,767.225c256.263,147.467 558.23,179.305 680.646,184.305c454.867,18.583 741.725,-80.038 1058.16,-280.767c292.808,-185.746 741.458,-718.175 677.837,-1410.02c-70.633,-768.141 -431.104,-1117.59 -670.254,-1289.82c-397.558,-286.316 -953.929,-372.02 -1463.87,-294.925c-426.483,64.48 -746.629,300.442 -855.587,390.984c-263.95,219.341 -425.929,454.125 -516.633,700.612c-60.788,165.196 -145.171,417.317 -115.159,852.925c7.525,109.217 35.379,306.238 105.859,542.542c32.475,108.887 152.516,333.754 178.887,400.3c2.375,5.987 -12.587,9.821 -25.037,-2.121c-68.775,-65.975 -299.425,-333.042 -410,-857.871c-15.909,-75.521 -34.775,-178.283 -41.855,-251.358c-49.037,-506.208 132.971,-982.013 378.142,-1311.14c6.004,-8.062 230.058,-318.616 638.108,-548.675c332.138,-187.262 773.163,-280.354 1121.47,-272.679c702.246,15.471 1306.47,377.817 1569.91,693.279c226.679,271.442 459.204,718.629 478.237,1216.43c8.584,224.408 19.746,607.412 -146.25,1024.5c-99.504,250.017 -439.046,634.696 -739.058,828.68c-60.988,39.429 -283.533,156.754 -339.921,184.429c-159.783,78.429 -187.833,94.191 -187.833,94.191c-0,0 -161.604,81.438 -201.854,231.863c-15.863,59.283 -18.796,167.321 -18.509,226.687c0.638,132.355 -0.021,261.059 -0.021,261.059c0,-0 85.825,555.121 186.513,867.571c107.712,334.262 279.787,609.608 363.071,753.341c73.529,126.9 138.604,265.475 195.441,403.363c672.421,272.662 1231.91,766.216 1588.25,1390.37c-399.779,-377.966 -876.029,-675.841 -1403.03,-867.858c41.729,135.079 72.375,246.071 92.329,312.525c93.9,312.667 102.046,503.483 102.046,503.483c0,0 -304.729,-482.133 -677.404,-778.537c-284.225,-226.054 -671.267,-272.159 -835.292,-281.384c-24.291,-0.433 -48.795,-0.65 -73.35,-0.65c-29.208,0 -58.341,0.309 -87.379,0.921c-164.329,9.838 -542.016,57.175 -823.579,281.113c-372.675,296.404 -691.479,778.537 -691.479,778.537c-0,0 8.862,-190.816 102.762,-503.483c21.717,-72.317 73.03,-180 140.621,-324.254c-539.95,191.5 -1027.62,493.829 -1435.65,879.587c370.955,-649.758 962.084,-1157.99 1671.37,-1422.73Z" style="fill:none;stroke:#74584c;stroke-width:4.04px;"/></g></g><g id="leaves"><path id="leave" d="M3617.78,1653.25c0,0 502.717,-235.296 430.75,-761.658c-71.616,-523.796 -430.75,-891.596 -430.75,-891.596c0,-0 -359.133,367.8 -430.75,891.596c-71.966,526.362 430.75,761.658 430.75,761.658" style="fill:#61be9a;"/><g><clipPath id="_clip2"><path d="M3617.78,1653.25c0,0 502.717,-235.296 430.75,-761.658c-71.616,-523.796 -430.75,-891.596 -430.75,-891.596c0,-0 -359.133,367.8 -430.75,891.596c-71.966,526.362 430.75,761.658 430.75,761.658"/></clipPath><g clip-path="url(#_clip2)"><path id="overlay" d="M3617.78,0c0,0 -96.804,948.038 0,1653.25c0,0 958.175,-397.367 3.692,-1653.25" style="fill:#74cfbd;"/></g></g><path id="leave1" serif:id="leave" d="M2529.98,1958.63c0,0 347.313,-432.966 50.488,-873.566c-295.383,-438.454 -779.95,-610.059 -779.95,-610.059c-0,0 -160,488.525 6.846,990.175c167.662,504.109 722.616,493.45 722.616,493.45" style="fill:#61be9a;"/><g><clipPath id="_clip3"><path d="M2529.98,1958.63c0,0 347.313,-432.966 50.488,-873.566c-295.383,-438.454 -779.95,-610.059 -779.95,-610.059c-0,0 -160,488.525 6.846,990.175c167.662,504.109 722.616,493.45 722.616,493.45"/></clipPath><g clip-path="url(#_clip3)"><path id="overlay1" serif:id="overlay" d="M1800.52,475.008c-0,0 331.429,893.48 729.462,1483.62c0,0 684.53,-779.37 -726.15,-1485.25" style="fill:#74cfbd;"/></g></g><path id="leave2" serif:id="leave" d="M4742.5,1960.3c0,-0 -347.313,-432.963 -50.483,-873.563c295.379,-438.454 779.946,-610.058 779.946,-610.058c-0,0 160,488.525 -6.846,990.175c-167.663,504.108 -722.617,493.446 -722.617,493.446" style="fill:#61be9a;"/><g><clipPath id="_clip4"><path d="M4742.5,1960.3c0,-0 -347.313,-432.963 -50.483,-873.563c295.379,-438.454 779.946,-610.058 779.946,-610.058c-0,0 160,488.525 -6.846,990.175c-167.663,504.108 -722.617,493.446 -722.617,493.446"/></clipPath><g clip-path="url(#_clip4)"><path id="overlay2" serif:id="overlay" d="M5472,476.675c0,0 -331.429,893.479 -729.462,1483.62c-0.001,-0 -684.53,-779.367 726.15,-1485.25" style="fill:#74cfbd;"/></g></g><path id="leave3" serif:id="leave" d="M1697.07,2644.99c-0,-0 173.375,-527.284 -259.142,-835.771c-430.408,-306.984 -944.379,-297.713 -944.379,-297.713c-0,0 21.525,513.604 353.733,924.859c333.833,413.266 849.788,208.625 849.788,208.625" style="fill:#61be9a;"/><g><clipPath id="_clip5"><path d="M1697.07,2644.99c-0,-0 173.375,-527.284 -259.142,-835.771c-430.408,-306.984 -944.379,-297.713 -944.379,-297.713c-0,0 21.525,513.604 353.733,924.859c333.833,413.266 849.788,208.625 849.788,208.625"/></clipPath><g clip-path="url(#_clip5)"><path id="overlay3" serif:id="overlay" d="M493.546,1511.5c-0,0 623.775,720.454 1203.52,1133.48c-0,-0.001 367.658,-969.963 -1200.99,-1136.17" style="fill:#74cfbd;"/></g></g><path id="leave4" serif:id="leave" d="M5555.12,2644.99c0,-0 -173.375,-527.284 259.142,-835.771c430.408,-306.984 944.379,-297.713 944.379,-297.713c-0,0 -21.525,513.604 -353.729,924.859c-333.838,413.266 -849.792,208.625 -849.792,208.625" style="fill:#61be9a;"/><g><clipPath id="_clip6"><path d="M5555.12,2644.99c0,-0 -173.375,-527.284 259.142,-835.771c430.408,-306.984 944.379,-297.713 944.379,-297.713c-0,0 -21.525,513.604 -353.729,924.859c-333.838,413.266 -849.792,208.625 -849.792,208.625"/></clipPath><g clip-path="url(#_clip6)"><path id="overlay4" serif:id="overlay" d="M6758.67,1511.5c-0,0 -623.775,720.454 -1203.52,1133.48c-0,-0.001 -367.659,-969.963 1200.99,-1136.17" style="fill:#74cfbd;"/></g></g><path id="leave5" serif:id="leave" d="M1403.47,3616.54c-0,-0 -56.517,-493.8 -523.855,-582.675c-465.058,-88.442 -879.612,111.637 -879.612,111.637c-0,0 209.908,409.663 634.158,619.696c426.329,211.062 769.309,-148.658 769.309,-148.658" style="fill:#61be9a;"/><g><clipPath id="_clip7"><path d="M1403.47,3616.54c-0,-0 -56.517,-493.8 -523.855,-582.675c-465.058,-88.442 -879.612,111.637 -879.612,111.637c-0,0 209.908,409.663 634.158,619.696c426.329,211.062 769.309,-148.658 769.309,-148.658"/></clipPath><g clip-path="url(#_clip7)"><path id="overlay5" serif:id="overlay" d="M0,3145.5c0,0 777.217,352.287 1403.47,471.037c-0,0 -64.334,-926.62 -1402.42,-474.175" style="fill:#74cfbd;"/></g></g><path id="leave6" serif:id="leave" d="M5803.88,3616.54c0,-0 56.517,-493.8 523.854,-582.675c465.059,-88.442 879.613,111.637 879.613,111.637c-0,0 -209.909,409.663 -634.159,619.696c-426.329,211.062 -769.308,-148.658 -769.308,-148.658" style="fill:#61be9a;"/><g><clipPath id="_clip8"><path d="M5803.88,3616.54c0,-0 56.517,-493.8 523.854,-582.675c465.059,-88.442 879.613,111.637 879.613,111.637c-0,0 -209.909,409.663 -634.159,619.696c-426.329,211.062 -769.308,-148.658 -769.308,-148.658"/></clipPath><g clip-path="url(#_clip8)"><path id="overlay6" serif:id="overlay" d="M7207.38,3145.5c0,0 -777.217,352.287 -1403.47,471.037c0,0 64.334,-926.62 1402.42,-474.175" style="fill:#74cfbd;"/></g></g><path id="leave7" serif:id="leave" d="M1502.47,4456.42c-0,-0 -327.717,-318.371 -711.917,-109.488c-382.325,207.867 -560.729,591.567 -560.729,591.567c-0,-0 387.85,169.208 811.937,71.6c426.171,-98.088 460.709,-553.679 460.709,-553.679" style="fill:#61be9a;"/><g><clipPath id="_clip9"><path d="M1502.47,4456.42c-0,-0 -327.717,-318.371 -711.917,-109.488c-382.325,207.867 -560.729,591.567 -560.729,591.567c-0,-0 387.85,169.208 811.937,71.6c426.171,-98.088 460.709,-553.679 460.709,-553.679"/></clipPath><g clip-path="url(#_clip9)"><path id="overlay7" serif:id="overlay" d="M229.821,4938.5c-0,0 758.012,-201.921 1272.65,-482.079c-0,-0 -585.288,-621.717 -1273.72,479.237" style="fill:#74cfbd;"/></g></g><path id="leave8" serif:id="leave" d="M5803.88,4456.42c0,-0 327.717,-318.371 711.917,-109.488c382.325,207.867 560.729,591.567 560.729,591.567c-0,-0 -387.846,169.208 -811.938,71.6c-426.171,-98.088 -460.708,-553.679 -460.708,-553.679" style="fill:#61be9a;"/><g><clipPath id="_clip10"><path d="M5803.88,4456.42c0,-0 327.717,-318.371 711.917,-109.488c382.325,207.867 560.729,591.567 560.729,591.567c-0,-0 -387.846,169.208 -811.938,71.6c-426.171,-98.088 -460.708,-553.679 -460.708,-553.679"/></clipPath><g clip-path="url(#_clip10)"><path id="overlay8" serif:id="overlay" d="M7076.54,4938.5c-0,0 -758.009,-201.921 -1272.65,-482.079c-0,-0 585.287,-621.717 1273.73,479.237" style="fill:#74cfbd;"/></g></g><path id="leave9" serif:id="leave" d="M1966.7,5242.58c0,0 -336.725,-146.633 -566.546,119.359c-228.7,264.687 -254.183,603.871 -254.183,603.871c-0,-0.001 339.696,17.387 631.054,-176.196c292.783,-194.538 189.675,-547.034 189.675,-547.034" style="fill:#61be9a;"/><g><clipPath id="_clip11"><path d="M1966.7,5242.58c0,0 -336.725,-146.633 -566.546,119.359c-228.7,264.687 -254.183,603.871 -254.183,603.871c-0,-0.001 339.696,17.387 631.054,-176.196c292.783,-194.538 189.675,-547.034 189.675,-547.034"/></clipPath><g clip-path="url(#_clip11)"><path id="overlay9" serif:id="overlay" d="M1145.97,5965.83c-0,0 512.987,-366.671 820.729,-723.229c0,0 -616.429,-301.837 -822.346,721.396" style="fill:#74cfbd;"/></g></g><path id="leave10" serif:id="leave" d="M5432.79,5242.58c-0,0 336.725,-146.633 566.545,119.359c228.7,264.687 254.184,603.871 254.184,603.871c-0,-0.001 -339.696,17.387 -631.054,-176.196c-292.784,-194.538 -189.675,-547.034 -189.675,-547.034" style="fill:#61be9a;"/><g><clipPath id="_clip12"><path d="M5432.79,5242.58c-0,0 336.725,-146.633 566.545,119.359c228.7,264.687 254.184,603.871 254.184,603.871c-0,-0.001 -339.696,17.387 -631.054,-176.196c-292.784,-194.538 -189.675,-547.034 -189.675,-547.034"/></clipPath><g clip-path="url(#_clip12)"><path id="overlay10" serif:id="overlay" d="M6253.54,5965.83c-0,0 -512.988,-366.671 -820.73,-723.229c0.001,0 616.43,-301.837 822.346,721.396" style="fill:#74cfbd;"/></g></g></g></g></svg>